<svg width="600" height="600" viewBox="0 0 600 600" fill="none" xmlns="http://www.w3.org/2000/svg">
<circle cx="300" cy="300" r="300" fill="#10B981"/>
<path d="M90 168.315H170.325V437.838C170.325 460.019 152.344 478 130.162 478V478C107.981 478 90 460.019 90 437.838V168.315Z" fill="white"/>
<path d="M90 134.531H170.325V174.511C170.325 196.692 152.344 214.673 130.162 214.673V214.673C107.981 214.673 90 196.692 90 174.511V134.531Z" fill="#10B981"/>
<path d="M170.325 157.429C170.325 177.547 152.344 193.857 130.162 193.857C107.981 193.857 90 177.547 90 157.429C90 137.31 107.981 121 130.162 121C152.344 121 170.325 137.31 170.325 157.429Z" fill="white"/>
<ellipse cx="379.663" cy="300.258" rx="169.338" ry="170.258" fill="white"/>
<ellipse cx="379.912" cy="299.948" rx="105.836" ry="106.411" fill="#10B981"/>
<rect y="-7.0902" width="70.6424" height="414.283" rx="35.3212" transform="matrix(0.705188 0.70902 -0.705188 0.70902 495.461 133.004)" fill="white" stroke="#10B981" stroke-width="10"/>
</svg>
